# xmcd
#
# Track frame offsets:
#	150
#	16262
#	32831
#	45957
#	64521
#	83314
#	101214
#	120659
#	135819
#	152731
#	169955
#	189488
#	208660
#	224935
#	239282
#	255915
#	273705
#
# Disc length: 3857
#
# Revision: 1
# Processed by: cddbd v1.5.1PL0 Copyright (c) Steve Scherf et al.
# Submitted via: ExactAudioCopy v0.90b3
# Normalized: r0:DSETVAR1,TDELIM( - )
#
DISCID=e40f0f11
DTITLE=Various Artist - Top Hits USA RC71
DYEAR=2002
DGENRE=Country
TTITLE0=Garth Brooks w Trish Yearwood - Squeeze Me In
TTITLE1=George Strait - Living And Living Well
TTITLE2=Emerson Drive - I Should Be Sleeping
TTITLE3=Alan Jackson (For Daddy Gene) - Drive
TTITLE4=Lonestar - Not A Day Goes By
TTITLE5=Travis Tritt - Modern Day Bonnie And Clyde
TTITLE6=Soggy Bottom Boys - I Am A Man Of Constant Sorrow [Radio Edit]
TTITLE7=Steve Azar (Till Monday) - I Don't Have To Be Me
TTITLE8=Carolyn Dawn Johnson - I Don't Want You To Go [Single Edit]
TTITLE9=Pat Green - Three Days
TTITLE10=Mark Wills w Jamie O'Neal - I'm Not Gonna Do Anything Without You
TTITLE11=Mark McGuinn - She Doesn't Dance
TTITLE12=Tammy Cochran - I Cry
TTITLE13=Chely Wright - Jezebel
TTITLE14=Kevin Denney - That's Just Jessie
TTITLE15=Shannon Lawson - Goodbye On A Bad Day
TTITLE16=Ty Herndon - Heather's Wall
EXTD=
EXTT0=
EXTT1=
EXTT2=
EXTT3=
EXTT4=
EXTT5=
EXTT6=
EXTT7=
EXTT8=
EXTT9=
EXTT10=
EXTT11=
EXTT12=
EXTT13=
EXTT14=
EXTT15=
EXTT16=
PLAYORDER=
